<svg width="64" height="41" viewBox="0 0 64 41" fill="none" xmlns="http://www.w3.org/2000/svg">
<path d="M62.4625 9.72036C61.1812 8.59878 59.4194 7.85106 57.4975 7.85106H32.8328C32.032 7.85106 31.2312 8.34954 31.2312 9.09726C31.2312 9.84498 32.032 10.3435 32.8328 10.3435H57.4975C58.4585 10.3435 59.4194 10.7173 60.0601 11.2158C60.7007 11.8389 61.021 12.5866 60.7007 13.3343L59.2593 19.5653H41.6416C40.8408 19.5653 40.04 20.0638 40.04 20.8115C40.04 21.5593 40.8408 22.0577 41.6416 22.0577H58.7788L57.3373 28.0395C57.1772 28.9119 56.0561 29.535 54.9349 29.535H24.1842C23.0631 29.535 22.1021 28.9119 21.7818 28.0395L15.5355 0.996961C15.3754 0.37386 14.7347 0 13.9339 0H1.6016C0.800801 0 0 0.49848 0 1.2462C0 1.99392 0.800801 2.4924 1.6016 2.4924H12.6527L18.7387 28.6626C19.0591 30.4073 20.6607 31.6535 22.7427 32.152C21.9419 33.0243 21.3013 34.1459 21.3013 35.3921C21.3013 38.5076 24.5045 41 28.5085 41C32.5125 41 35.7157 38.5076 35.7157 35.3921C35.7157 34.2705 35.2352 33.1489 34.4344 32.2766H44.2042C43.4034 33.1489 42.9229 34.2705 42.9229 35.3921C42.9229 38.5076 46.1261 41 50.1301 41C54.1341 41 57.3373 38.5076 57.3373 35.3921C57.3373 34.1459 56.8569 33.0243 56.0561 32.152C58.1381 31.7781 59.8999 30.4073 60.3804 28.6626L63.9039 13.9574C64.2242 12.462 63.7438 10.9666 62.4625 9.72036ZM32.5125 35.2675C32.5125 37.0122 30.7508 38.383 28.5085 38.383C26.2663 38.383 24.5045 37.0122 24.5045 35.2675C24.5045 33.5228 26.2663 32.152 28.5085 32.152C30.7508 32.152 32.5125 33.5228 32.5125 35.2675ZM50.2903 38.383C48.0481 38.383 46.2863 37.0122 46.2863 35.2675C46.2863 33.5228 48.0481 32.152 50.2903 32.152C52.5325 32.152 54.2943 33.5228 54.2943 35.2675C54.2943 37.0122 52.5325 38.383 50.2903 38.383Z" fill="black"/>
</svg>
