<svg width="16" height="16" viewBox="0 0 16 16" fill="none" xmlns="http://www.w3.org/2000/svg">
<g clip-path="url(#clip0_36_12)">
<path d="M0.666656 0.666672H3.33332L5.11999 9.59334C5.18095 9.90027 5.34793 10.176 5.59169 10.3722C5.83544 10.5684 6.14045 10.6727 6.45332 10.6667H12.9333C13.2462 10.6727 13.5512 10.5684 13.795 10.3722C14.0387 10.176 14.2057 9.90027 14.2667 9.59334L15.3333 4.00001H3.99999M6.66666 14C6.66666 14.3682 6.36818 14.6667 5.99999 14.6667C5.6318 14.6667 5.33332 14.3682 5.33332 14C5.33332 13.6318 5.6318 13.3333 5.99999 13.3333C6.36818 13.3333 6.66666 13.6318 6.66666 14ZM14 14C14 14.3682 13.7015 14.6667 13.3333 14.6667C12.9651 14.6667 12.6667 14.3682 12.6667 14C12.6667 13.6318 12.9651 13.3333 13.3333 13.3333C13.7015 13.3333 14 13.6318 14 14Z" stroke="#F5F5F5" stroke-width="1.6" stroke-linecap="round" stroke-linejoin="round"/>
</g>
<defs>
<clipPath id="clip0_36_12">
<rect width="16" height="16" fill="white"/>
</clipPath>
</defs>
</svg>
