<svg width="66" height="70" viewBox="0 0 66 70" fill="none" xmlns="http://www.w3.org/2000/svg">
<path d="M64 8.5H44V2C44 0.9 43.1 0 42 0H24C22.9 0 22 0.9 22 2V8.5H2C0.9 8.5 0 9.4 0 10.5C0 11.6 0.9 12.5 2 12.5H8.6V68C8.6 69.1 9.5 70 10.6 70H55.4C56.5 70 57.4 69.1 57.4 68V12.5H64C65.1 12.5 66 11.6 66 10.5C66 9.4 65.1 8.5 64 8.5ZM26 4H40V8H26V4ZM53.4 66H12.6V12.5H53.4V66ZM44 23.3V55.3C44 56.4 43.1 57.3 42 57.3C40.9 57.3 40 56.4 40 55.3V23.3C40 22.2 40.9 21.3 42 21.3C43.1 21.3 44 22.1 44 23.3ZM26 23.3V55.3C26 56.4 25.1 57.3 24 57.3C22.9 57.3 22 56.4 22 55.3V23.3C22 22.2 22.9 21.3 24 21.3C25.1 21.3 26 22.1 26 23.3Z" fill="black"/>
</svg>
