<?xml version="1.0" standalone="no"?>
<!DOCTYPE svg PUBLIC "-//W3C//DTD SVG 20010904//EN"
 "http://www.w3.org/TR/2001/REC-SVG-20010904/DTD/svg10.dtd">
<svg version="1.0" xmlns="http://www.w3.org/2000/svg"
 width="148.000000pt" height="148.000000pt" viewBox="0 0 148.000000 148.000000"
 preserveAspectRatio="xMidYMid meet">

<g transform="translate(0.000000,148.000000) scale(0.100000,-0.100000)"
fill="#000000" stroke="none">
<path d="M919 1433 c-13 -9 -36 -27 -51 -41 -16 -14 -28 -22 -28 -18 0 14 -55
-26 -80 -59 -17 -22 -28 -29 -33 -22 -9 15 -32 -12 -57 -66 -12 -26 -20 -35
-25 -26 -6 8 -14 1 -26 -22 -10 -19 -18 -40 -19 -48 0 -8 -7 -19 -16 -25 -10
-8 -16 -30 -17 -61 -1 -28 -6 -52 -12 -55 -6 -3 -8 -26 -4 -55 l6 -50 1 43 c2
29 6 41 13 36 9 -5 10 4 5 30 -8 41 1 99 14 91 4 -3 11 7 14 23 4 15 12 40 18
56 10 25 13 26 23 12 10 -13 14 -10 24 23 6 22 20 50 31 63 17 20 21 21 30 8
5 -8 10 -10 10 -4 0 19 72 95 86 90 7 -3 18 2 25 10 7 8 25 24 40 35 l29 20
-7 -33 c-3 -18 -12 -46 -20 -62 -14 -26 -13 -28 1 -23 20 8 21 -9 3 -43 -35
-67 -40 -109 -9 -78 24 24 21 0 -6 -53 -29 -57 -41 -71 -54 -62 -5 2 -20 -2
-33 -11 -30 -20 -35 -20 -35 -2 0 18 -38 46 -61 46 -15 0 -50 -29 -74 -62 -25
-34 -15 -116 19 -153 12 -13 36 -29 52 -35 l29 -11 -29 24 c-20 16 -27 29 -23
40 9 24 26 21 39 -8 6 -13 15 -22 20 -19 4 3 6 11 2 17 -3 7 6 -3 21 -20 14
-18 33 -33 41 -33 8 0 14 -3 14 -7 -1 -22 -23 -36 -66 -41 -45 -5 -50 -3 -76
29 -22 26 -30 31 -40 21 -9 -9 -10 -15 -2 -20 13 -8 66 -122 57 -122 -3 0 4
-9 17 -20 41 -35 55 -26 96 58 37 75 40 83 43 110 0 7 6 10 11 7 6 -3 10 -3
10 2 0 4 11 9 24 9 22 2 24 -1 15 -23 -13 -34 -11 -37 9 -22 15 13 16 12 4 -3
-8 -9 -19 -15 -26 -12 -7 3 -26 -14 -42 -38 -16 -24 -33 -46 -39 -50 -5 -4 3
-8 18 -8 37 0 43 -20 22 -74 -10 -25 -15 -52 -11 -61 3 -9 2 -14 -2 -11 -5 3
-14 -11 -21 -30 -7 -18 -17 -34 -22 -34 -5 0 -8 -5 -6 -12 6 -29 -35 -16 -79
24 -82 75 -136 178 -151 287 -6 44 -5 45 12 31 17 -14 18 -13 12 3 -4 10 -7
24 -7 31 0 11 -105 49 -126 45 -29 -5 -42 2 -37 21 3 12 0 22 -9 25 -16 6 -71
-19 -62 -28 3 -3 -12 -1 -33 4 -21 6 -59 10 -86 9 -44 -1 -47 1 -47 25 0 29 8
30 57 10 44 -18 44 -18 37 0 -4 8 -1 15 7 15 7 0 9 3 6 6 -4 4 -13 2 -21 -5
-10 -8 -21 -9 -40 -1 -15 5 -36 10 -47 10 -17 0 -20 -6 -17 -32 3 -30 6 -33
41 -36 36 -3 47 -14 27 -27 -18 -11 -11 -51 13 -71 22 -19 22 -19 4 2 -18 22
-23 64 -7 64 5 0 20 -5 34 -12 19 -8 23 -14 15 -24 -8 -9 -5 -11 11 -7 26 7
80 60 77 75 -1 7 6 14 16 16 14 3 17 -1 12 -22 -3 -14 -7 -37 -10 -51 -3 -14
-16 -30 -28 -35 -17 -7 -18 -9 -4 -9 25 -1 21 -20 -9 -33 -20 -9 -30 -9 -45 0
-11 7 -19 8 -19 2 0 -5 11 -12 25 -16 15 -4 34 -23 50 -50 16 -27 40 -52 61
-61 32 -16 33 -18 17 -35 -9 -10 -24 -18 -35 -18 -10 0 -27 -8 -38 -17 -44
-38 -150 -147 -150 -155 0 -5 11 -6 25 -2 15 4 25 2 25 -5 0 -6 11 -11 24 -11
14 0 37 -5 52 -10 46 -18 179 -27 262 -18 41 5 42 4 42 -24 0 -16 -4 -27 -9
-24 -5 3 -23 3 -41 -1 -25 -4 -36 -14 -47 -42 -8 -20 -23 -44 -34 -53 -10 -10
-21 -34 -25 -55 -9 -47 12 -63 83 -63 62 0 137 31 159 66 19 28 4 96 -27 117
-25 18 -36 79 -17 94 36 28 77 32 121 13 38 -17 44 -23 41 -47 -1 -16 -2 -34
-3 -40 -1 -7 -7 -13 -15 -13 -19 0 -23 -7 -31 -50 -6 -34 -5 -36 43 -58 28
-12 58 -22 68 -21 11 0 14 3 7 6 -18 7 -16 28 3 44 14 11 13 14 -8 25 l-23 13
28 1 c15 0 27 -4 27 -10 0 -5 10 -10 22 -10 12 0 30 -7 40 -17 11 -10 18 -12
18 -4 0 6 -7 14 -15 17 -8 3 -19 23 -25 44 -9 32 -15 39 -44 44 -18 4 -40 4
-48 1 -11 -5 -14 1 -10 24 2 17 7 29 11 27 13 -8 158 -15 165 -8 4 3 23 5 42
3 19 -1 34 2 34 8 0 6 15 11 33 11 17 0 45 7 61 15 15 8 39 15 52 15 13 0 24
5 24 10 0 6 12 10 28 10 25 1 23 4 -41 65 -38 36 -73 65 -78 65 -5 0 -12 0
-16 -1 -3 0 -10 6 -15 15 -5 9 -15 16 -23 16 -24 0 -12 41 18 62 22 16 26 23
16 29 -10 6 -9 10 5 15 10 4 21 2 26 -5 11 -18 70 14 70 37 0 10 6 24 13 32 6
8 3 7 -9 -3 -11 -9 -24 -17 -27 -17 -13 0 -7 31 7 36 10 4 13 18 12 46 -2 26
1 41 10 45 35 13 -4 22 -84 18 -131 -5 -176 -24 -247 -101 -24 -27 -45 -46
-45 -42 0 3 11 29 25 56 28 56 32 84 11 76 -12 -5 -12 0 -1 33 19 56 22 99 7
95 -9 -1 -10 6 -5 25 4 16 7 39 7 53 0 84 -5 130 -13 126 -5 -4 -7 19 -4 54 5
51 3 60 -11 60 -20 0 -20 16 -1 54 19 36 16 40 -16 19z m-176 -371 c2 -4 7
-20 11 -36 l7 -29 -51 5 c-62 6 -76 18 -60 47 19 37 75 45 93 13z m160 -27
c-7 -19 -19 -19 -26 -1 -3 8 -1 17 6 19 18 6 27 -2 20 -18z m-39 -7 c35 -50
18 -66 -54 -52 -39 8 -48 28 -25 54 24 26 60 25 79 -2z m-207 -26 c9 -6 11
-44 4 -105 -1 -5 -5 -6 -11 -2 -14 8 -29 71 -23 95 6 22 11 24 30 12z m107
-22 c22 -8 26 -16 26 -50 0 -28 5 -43 16 -47 20 -8 36 17 22 34 -8 10 -6 13 6
13 9 0 16 7 16 15 0 8 7 15 15 15 19 0 19 -23 0 -60 -42 -80 -126 -51 -111 39
l6 36 -16 -35 c-11 -24 -18 -30 -22 -20 -3 8 -10 18 -16 22 -6 4 -4 9 7 14 9
3 17 12 17 20 0 17 1 17 34 4z m173 -32 c-3 -7 -5 -2 -5 12 0 14 2 19 5 13 2
-7 2 -19 0 -25z m-616 -61 c-12 -12 -81 15 -81 31 0 20 14 20 52 0 27 -15 36
-24 29 -31z m893 16 c7 -18 -16 -43 -40 -43 -6 0 -15 -7 -18 -16 -3 -8 -2 -13
2 -10 5 3 16 -11 25 -30 21 -43 21 -44 0 -44 -15 0 -16 -2 -3 -10 12 -7 12
-10 -4 -16 -26 -10 -70 16 -74 44 -4 25 5 27 32 7 11 -8 25 -15 30 -15 6 1 -1
8 -16 16 -29 15 -38 49 -16 56 8 3 3 14 -15 30 -23 21 -25 27 -11 32 18 7 50
-8 57 -26 3 -7 6 -3 6 9 1 19 12 30 32 32 4 1 10 -7 13 -16z m59 -27 c8 -23 6
-32 -12 -49 -30 -30 -39 -12 -10 21 l24 27 -27 -24 c-31 -27 -49 -21 -30 9 7
11 12 27 12 36 0 26 33 11 43 -20z m-833 14 c9 -6 17 -5 21 2 5 7 17 4 37 -11
19 -13 32 -17 34 -10 2 7 10 4 18 -7 12 -14 12 -16 1 -9 -12 7 -13 -2 -8 -51
3 -32 9 -69 13 -81 5 -20 3 -23 -20 -23 -14 0 -26 6 -27 13 0 10 -2 10 -6 0
-7 -19 -51 -16 -70 5 -53 55 -63 73 -57 98 4 17 11 23 22 19 11 -4 12 -2 4 8
-13 15 -5 57 12 57 6 0 18 -4 26 -10z m659 -17 c21 -18 21 -18 2 -54 -12 -22
-16 -41 -10 -50 5 -11 0 -27 -18 -52 -21 -30 -33 -37 -62 -39 -41 -1 -94 2
-99 7 -7 7 51 124 59 120 4 -3 10 4 14 15 6 18 70 70 86 70 4 0 16 -8 28 -17z
m147 -81 c30 -27 35 -35 23 -43 -8 -5 -21 -9 -30 -9 -19 0 -65 93 -54 111 6 9
10 7 16 -7 4 -10 24 -34 45 -52z m-478 -17 c35 7 35 6 20 -17 -8 -12 -26 -26
-39 -29 l-24 -7 23 -1 c20 -1 21 -4 12 -21 -22 -40 -45 -21 -86 72 l-12 26 35
-15 c23 -9 49 -12 71 -8z m391 -64 c12 -8 7 -14 -23 -32 -22 -13 -33 -25 -26
-29 12 -7 -31 -30 -57 -30 -12 0 -13 -3 -3 -15 19 -23 -75 -79 -207 -120 l-41
-14 21 32 c12 18 31 53 42 77 11 25 23 48 28 51 13 9 57 -2 57 -15 0 -8 2 -8
8 0 4 6 29 14 57 17 43 4 54 11 84 46 36 44 39 45 60 32z m-579 -63 c0 -11
-52 -10 -70 2 -11 8 -4 10 28 8 23 -1 42 -6 42 -10z m283 -23 c-3 -9 -8 -14
-10 -11 -3 3 -2 9 2 15 9 16 15 13 8 -4z m-275 -6 c8 -2 21 -14 30 -28 8 -14
40 -51 70 -82 l54 -57 -48 -15 c-82 -26 -97 -28 -83 -11 7 9 8 14 1 14 -6 0
-13 -4 -16 -9 -3 -5 -20 -14 -37 -20 -29 -10 -30 -9 -18 6 12 15 12 16 -6 9
-34 -13 -78 -18 -71 -8 3 6 -18 10 -52 11 -73 1 -131 11 -138 22 -3 5 -15 9
-26 9 -17 0 -12 9 31 50 29 28 49 50 44 50 -16 1 42 29 60 30 10 0 15 5 12 10
-6 9 10 14 43 13 6 -1 12 3 12 8 0 7 78 6 138 -2z m499 -52 c-4 -11 3 -11 39
1 49 16 68 10 38 -13 -18 -13 -18 -14 -1 -15 10 0 28 5 39 11 16 9 19 8 13 -1
-6 -10 -1 -11 21 -7 l29 5 -25 -20 c-14 -12 -18 -19 -10 -16 8 3 27 -1 41 -8
15 -7 28 -12 30 -11 2 1 -4 -6 -13 -15 -9 -10 -29 -18 -43 -18 -14 0 -25 -4
-25 -9 0 -4 -26 -11 -57 -14 -32 -3 -59 -10 -61 -16 -2 -5 -21 -6 -44 -3 -30
3 -39 2 -34 -6 9 -16 3 -15 -41 3 -43 18 -46 18 -37 4 5 -9 -4 -10 -32 -5 -57
10 -124 29 -124 36 0 4 23 12 52 19 47 10 200 81 223 102 14 14 28 11 22 -4z
m-251 -274 c-10 -10 -19 5 -10 18 6 11 8 11 12 0 2 -7 1 -15 -2 -18z m-136 7
c0 -5 -4 -10 -10 -10 -5 0 -10 5 -10 10 0 6 5 10 10 10 6 0 10 -4 10 -10z
m217 4 c-3 -3 -12 -4 -19 -1 -8 3 -5 6 6 6 11 1 17 -2 13 -5z m-287 -25 c0 -5
4 -8 9 -4 11 6 61 -15 61 -26 0 -5 -10 -14 -22 -20 -19 -10 -25 -8 -44 15 -13
14 -31 26 -40 26 -15 0 -15 -3 4 -20 33 -31 28 -50 -12 -50 -19 0 -46 4 -61
10 -22 8 -24 13 -15 30 6 12 24 23 41 27 16 3 32 10 35 14 7 13 44 11 44 -2z
m254 -34 c-11 -8 -23 -14 -29 -15 -13 0 -41 18 -35 23 38 31 53 35 68 21 13
-13 12 -17 -4 -29z m-154 -14 c0 -34 -96 -80 -165 -81 -53 0 -75 12 -75 42 0
15 4 16 26 8 42 -16 96 -11 149 14 57 28 65 30 65 17z"/>
<path d="M465 740 c3 -5 8 -10 11 -10 2 0 4 5 4 10 0 6 -5 10 -11 10 -5 0 -7
-4 -4 -10z"/>
<path d="M427 493 c18 -2 50 -2 70 0 21 2 7 4 -32 4 -38 0 -55 -2 -38 -4z"/>
<path d="M169 1293 c-13 -16 -12 -17 3 -4 21 15 48 8 48 -13 0 -8 4 -18 10
-21 6 -4 7 1 3 12 -16 45 -41 55 -64 26z"/>
<path d="M144 1224 c-18 -14 -18 -15 4 -4 12 6 22 13 22 15 0 8 -5 6 -26 -11z"/>
<path d="M237 1202 c-19 -21 -13 -32 16 -32 15 0 18 -5 15 -25 -3 -13 -1 -22
3 -19 17 10 9 46 -11 51 -23 6 -25 14 -8 31 7 7 10 12 7 12 -3 0 -13 -8 -22
-18z"/>
<path d="M174 1157 c1 -14 -6 -23 -19 -25 -11 -2 -24 -8 -29 -13 -5 -5 6 -4
25 1 18 6 35 10 36 10 7 0 2 39 -5 44 -5 3 -8 -5 -8 -17z"/>
<path d="M190 1085 c-17 -20 -5 -45 20 -45 12 0 24 -9 30 -22 5 -14 9 -17 9
-7 1 20 -19 39 -41 39 -21 0 -24 20 -6 38 7 7 9 12 6 12 -3 0 -11 -7 -18 -15z"/>
<path d="M133 1072 c21 -23 21 -36 2 -52 -8 -7 -15 -17 -15 -23 0 -5 9 2 21
17 22 28 19 60 -8 71 -15 5 -15 4 0 -13z"/>
<path d="M303 1003 c9 -2 25 -2 35 0 9 3 1 5 -18 5 -19 0 -27 -2 -17 -5z"/>
<path d="M341 979 c-1 -20 -24 -30 -48 -23 -10 2 -8 -1 5 -7 19 -10 26 -10 39
3 8 9 13 22 10 30 -4 9 -6 8 -6 -3z"/>
<path d="M237 859 c7 -7 15 -10 18 -7 3 3 -2 9 -12 12 -14 6 -15 5 -6 -5z"/>
<path d="M790 224 c-1 -30 104 -84 160 -83 32 1 31 2 -11 9 -55 9 -124 43
-138 67 -6 10 -11 13 -11 7z"/>
<path d="M990 213 l-35 -13 38 5 c33 5 37 3 37 -15 0 -12 -9 -25 -22 -30 -18
-8 -19 -9 -4 -7 27 3 42 31 30 54 -8 17 -12 18 -44 6z"/>
</g>
</svg>
